ffmpeg started on 2025-05-28 at 11:12:01
Report written to "D:\Convert\FFMetrics\reports\psnr_report-6.txt"
Log level: 32
Command line:
ffmpeg -hide_banner -nostdin -i "G:\\\xc0\xed\xe8\xec\xe5\\\xce\xed\xe3\xee\xe8\xed\xe3\xe8\\!_36_\xce\xf1\xe5\xed\xfc_2024\\JamClub\\MF \xcf\xf0\xe8\xe7\xf0\xe0\xea\\\xd2\xc2-2\\[JamClub] MF Ghost 2 - 10_HEVC.mkv" -i "G:\\\xc0\xed\xe8\xec\xe5\\\xce\xed\xe3\xee\xe8\xed\xe3\xe8\\!_36_\xce\xf1\xe5\xed\xfc_2024\\JamClub\\MF \xcf\xf0\xe8\xe7\xf0\xe0\xea\\\xd2\xc2-2\\[JamClub] MF Ghost 2 - 10.mp4" -lavfi "[0:v]settb=AVTB,setpts=PTS-STARTPTS,format=pix_fmts=yuv420p10,fps=24000/1001,scale=1920:1080:flags=bicubic[main];[1:v]settb=AVTB,setpts=PTS-STARTPTS,format=pix_fmts=yuv420p,fps=24000/1001,scale=1920:1080:flags=bicubic[ref];[main][ref]psnr=eof_action=endall:stats_file='D\\:/Convert/FFMetrics/logs/psnr_logfile-6.txt'" -f null -
Input #0, matroska,webm, from 'G:\Аниме\Онгоинги\!_36_Осень_2024\JamClub\MF Призрак\ТВ-2\[JamClub] MF Ghost 2 - 10_HEVC.mkv':
  Metadata:
    COMPATIBLE_BRANDS: isomiso2avc1mp41
    MAJOR_BRAND     : isom
    MINOR_VERSION   : 512
    ENCODER         : Lavf61.7.100
  Duration: 00:24:02.28, start: -0.001000, bitrate: 1587 kb/s
  Stream #0:0: Video: hevc (Main 10), yuv420p10le(tv, bt709, progressive), 1920x1080 [SAR 1:1 DAR 16:9], 23.98 fps, 23.98 tbr, 1k tbn (default)
      Metadata:
        HANDLER_NAME    : VideoHandler
        VENDOR_ID       : [0][0][0][0]
        ENCODER         : Lavc61.19.100 libx265
        BPS             : 1387303
        DURATION        : 00:24:02.148708333
        NUMBER_OF_FRAMES: 34577
        NUMBER_OF_BYTES : 250087149
        _STATISTICS_WRITING_APP: mkvpropedit v66.0.0 ('Josie') 64-bit
        _STATISTICS_WRITING_DATE_UTC: 2025-05-27 14:09:56
        _STATISTICS_TAGS: BPS DURATION NUMBER_OF_FRAMES NUMBER_OF_BYTES
  Stream #0:1(eng): Audio: aac (LC), 48000 Hz, stereo, fltp (default)
      Metadata:
        HANDLER_NAME    : SoundHandler
        VENDOR_ID       : [0][0][0][0]
        ENCODER         : Lavc61.19.100 aac
        BPS             : 195831
        DURATION        : 00:24:02.243000000
        NUMBER_OF_FRAMES: 67606
        NUMBER_OF_BYTES : 35304597
        _STATISTICS_WRITING_APP: mkvpropedit v66.0.0 ('Josie') 64-bit
        _STATISTICS_WRITING_DATE_UTC: 2025-05-27 14:09:56
        _STATISTICS_TAGS: BPS DURATION NUMBER_OF_FRAMES NUMBER_OF_BYTES
Input #1, mov,mp4,m4a,3gp,3g2,mj2, from 'G:\Аниме\Онгоинги\!_36_Осень_2024\JamClub\MF Призрак\ТВ-2\[JamClub] MF Ghost 2 - 10.mp4':
  Metadata:
    major_brand     : isom
    minor_version   : 512
    compatible_brands: isomiso2avc1mp41
    encoder         : Lavf60.16.100
  Duration: 00:24:02.26, start: 0.000000, bitrate: 4429 kb/s
  Stream #1:0[0x1](und): Video: h264 (High) (avc1 / 0x31637661), yuv420p(progressive), 1920x1080 [SAR 1:1 DAR 16:9], 4232 kb/s, 23.98 fps, 23.98 tbr, 90k tbn (default)
      Metadata:
        handler_name    : VideoHandler
        vendor_id       : [0][0][0][0]
  Stream #1:1[0x2](eng): Audio: aac (LC) (mp4a / 0x6134706D), 48000 Hz, stereo, fltp, 191 kb/s (default)
      Metadata:
        handler_name    : SoundHandler
        vendor_id       : [0][0][0][0]
Stream mapping:
  Stream #0:0 (hevc) -> settb:default
  Stream #1:0 (h264) -> settb:default
  psnr:default -> Stream #0:0 (wrapped_avframe)
  Stream #0:1 -> #0:1 (aac (native) -> pcm_s16le (native))
Output #0, null, to 'pipe:':
  Metadata:
    COMPATIBLE_BRANDS: isomiso2avc1mp41
    MAJOR_BRAND     : isom
    MINOR_VERSION   : 512
    encoder         : Lavf61.7.100
  Stream #0:0: Video: wrapped_avframe, yuv420p10le(tv, bt709, progressive), 1920x1080 [SAR 1:1 DAR 16:9], q=2-31, 200 kb/s, 23.98 fps, 23.98 tbn
      Metadata:
        encoder         : Lavc61.19.100 wrapped_avframe
  Stream #0:1(eng): Audio: pcm_s16le, 48000 Hz, stereo, s16, 1536 kb/s (default)
      Metadata:
        HANDLER_NAME    : SoundHandler
        VENDOR_ID       : [0][0][0][0]
        _STATISTICS_TAGS: BPS DURATION NUMBER_OF_FRAMES NUMBER_OF_BYTES
        BPS             : 195831
        DURATION        : 00:24:02.243000000
        NUMBER_OF_FRAMES: 67606
        NUMBER_OF_BYTES : 35304597
        _STATISTICS_WRITING_APP: mkvpropedit v66.0.0 ('Josie') 64-bit
        _STATISTICS_WRITING_DATE_UTC: 2025-05-27 14:09:56
        encoder         : Lavc61.19.100 pcm_s16le
frame=  112 fps=0.0 q=-0.0 size=N/A time=00:00:04.67 bitrate=N/A speed=   9x    frame=  266 fps=259 q=-0.0 size=N/A time=00:00:11.09 bitrate=N/A speed=10.8x    frame=  455 fps=296 q=-0.0 size=N/A time=00:00:18.97 bitrate=N/A speed=12.3x    frame=  665 fps=322 q=-0.0 size=N/A time=00:00:27.73 bitrate=N/A speed=13.4x    frame=  891 fps=346 q=-0.0 size=N/A time=00:00:37.16 bitrate=N/A speed=14.4x    frame= 1140 fps=370 q=-0.0 size=N/A time=00:00:47.54 bitrate=N/A speed=15.4x    frame= 1401 fps=388 q=-0.0 size=N/A time=00:00:58.43 bitrate=N/A speed=16.2x    frame= 1636 fps=396 q=-0.0 size=N/A time=00:01:08.23 bitrate=N/A speed=16.5x    frame= 1805 fps=389 q=-0.0 size=N/A time=00:01:15.28 bitrate=N/A speed=16.2x    frame= 2045 fps=397 q=-0.0 size=N/A time=00:01:25.29 bitrate=N/A speed=16.5x    frame= 2286 fps=404 q=-0.0 size=N/A time=00:01:35.34 bitrate=N/A speed=16.8x    frame= 2524 fps=408 q=-0.0 size=N/A time=00:01:45.27 bitrate=N/A speed=  17x    frame= 2716 fps=406 q=-0.0 size=N/A time=00:01:53.27 bitrate=N/A speed=16.9x    frame= 2895 fps=401 q=-0.0 size=N/A time=00:02:00.74 bitrate=N/A speed=16.7x    frame= 3157 fps=409 q=-0.0 size=N/A time=00:02:11.67 bitrate=N/A speed=  17x    frame= 3417 fps=414 q=-0.0 size=N/A time=00:02:22.51 bitrate=N/A speed=17.3x    frame= 3686 fps=420 q=-0.0 size=N/A time=00:02:33.73 bitrate=N/A speed=17.5x    frame= 3954 fps=426 q=-0.0 size=N/A time=00:02:44.91 bitrate=N/A speed=17.8x    frame= 4187 fps=427 q=-0.0 size=N/A time=00:02:54.63 bitrate=N/A speed=17.8x    frame= 4430 fps=429 q=-0.0 size=N/A time=00:03:04.76 bitrate=N/A speed=17.9x    frame= 4686 fps=432 q=-0.0 size=N/A time=00:03:15.44 bitrate=N/A speed=  18x    frame= 4930 fps=434 q=-0.0 size=N/A time=00:03:25.62 bitrate=N/A speed=18.1x    frame= 5201 fps=438 q=-0.0 size=N/A time=00:03:36.92 bitrate=N/A speed=18.3x    frame= 5430 fps=438 q=-0.0 size=N/A time=00:03:46.47 bitrate=N/A speed=18.3x    frame= 5697 fps=441 q=-0.0 size=N/A time=00:03:57.61 bitrate=N/A speed=18.4x    frame= 5875 fps=438 q=-0.0 size=N/A time=00:04:05.03 bitrate=N/A speed=18.3x    frame= 6121 fps=439 q=-0.0 size=N/A time=00:04:15.29 bitrate=N/A speed=18.3x    frame= 6339 fps=438 q=-0.0 size=N/A time=00:04:24.38 bitrate=N/A speed=18.3x    frame= 6608 fps=441 q=-0.0 size=N/A time=00:04:35.60 bitrate=N/A speed=18.4x    frame= 6855 fps=442 q=-0.0 size=N/A time=00:04:45.91 bitrate=N/A speed=18.5x    frame= 7102 fps=443 q=-0.0 size=N/A time=00:04:56.21 bitrate=N/A speed=18.5x    frame= 7335 fps=444 q=-0.0 size=N/A time=00:05:05.93 bitrate=N/A speed=18.5x    frame= 7593 fps=445 q=-0.0 size=N/A time=00:05:16.69 bitrate=N/A speed=18.6x    frame= 7856 fps=447 q=-0.0 size=N/A time=00:05:27.66 bitrate=N/A speed=18.7x    frame= 8089 fps=448 q=-0.0 size=N/A time=00:05:37.37 bitrate=N/A speed=18.7x    frame= 8336 fps=448 q=-0.0 size=N/A time=00:05:47.68 bitrate=N/A speed=18.7x    frame= 8563 fps=448 q=-0.0 size=N/A time=00:05:57.14 bitrate=N/A speed=18.7x    frame= 8831 fps=450 q=-0.0 size=N/A time=00:06:08.32 bitrate=N/A speed=18.8x    frame= 9067 fps=450 q=-0.0 size=N/A time=00:06:18.16 bitrate=N/A speed=18.8x    frame= 9259 fps=448 q=-0.0 size=N/A time=00:06:26.17 bitrate=N/A speed=18.7x    frame= 9487 fps=448 q=-0.0 size=N/A time=00:06:35.68 bitrate=N/A speed=18.7x    frame= 9698 fps=447 q=-0.0 size=N/A time=00:06:44.48 bitrate=N/A speed=18.7x    frame= 9888 fps=445 q=-0.0 size=N/A time=00:06:52.41 bitrate=N/A speed=18.6x    frame=10080 fps=444 q=-0.0 size=N/A time=00:07:00.42 bitrate=N/A speed=18.5x    frame=10293 fps=443 q=-0.0 size=N/A time=00:07:09.30 bitrate=N/A speed=18.5x    frame=10486 fps=442 q=-0.0 size=N/A time=00:07:17.35 bitrate=N/A speed=18.4x    frame=10674 fps=440 q=-0.0 size=N/A time=00:07:25.19 bitrate=N/A speed=18.3x    frame=10894 fps=440 q=-0.0 size=N/A time=00:07:34.37 bitrate=N/A speed=18.3x    frame=11130 fps=440 q=-0.0 size=N/A time=00:07:44.21 bitrate=N/A speed=18.4x    frame=11367 fps=441 q=-0.0 size=N/A time=00:07:54.09 bitrate=N/A speed=18.4x    frame=11543 fps=438 q=-0.0 size=N/A time=00:08:01.43 bitrate=N/A speed=18.3x    frame=11791 fps=439 q=-0.0 size=N/A time=00:08:11.78 bitrate=N/A speed=18.3x    frame=12053 fps=441 q=-0.0 size=N/A time=00:08:22.71 bitrate=N/A speed=18.4x    frame=12300 fps=441 q=-0.0 size=N/A time=00:08:33.01 bitrate=N/A speed=18.4x    frame=12561 fps=443 q=-0.0 size=N/A time=00:08:43.89 bitrate=N/A speed=18.5x    frame=12817 fps=443 q=-0.0 size=N/A time=00:08:54.57 bitrate=N/A speed=18.5x    frame=13049 fps=444 q=-0.0 size=N/A time=00:09:04.25 bitrate=N/A speed=18.5x    frame=13293 fps=444 q=-0.0 size=N/A time=00:09:14.42 bitrate=N/A speed=18.5x    frame=13532 fps=444 q=-0.0 size=N/A time=00:09:24.39 bitrate=N/A speed=18.5x    frame=13730 fps=443 q=-0.0 size=N/A time=00:09:32.65 bitrate=N/A speed=18.5x    frame=13997 fps=445 q=-0.0 size=N/A time=00:09:43.79 bitrate=N/A speed=18.5x    frame=14263 fps=446 q=-0.0 size=N/A time=00:09:54.88 bitrate=N/A speed=18.6x    frame=14513 fps=446 q=-0.0 size=N/A time=00:10:05.31 bitrate=N/A speed=18.6x    frame=14748 fps=447 q=-0.0 size=N/A time=00:10:15.11 bitrate=N/A speed=18.6x    frame=14995 fps=447 q=-0.0 size=N/A time=00:10:25.41 bitrate=N/A speed=18.6x    frame=15223 fps=447 q=-0.0 size=N/A time=00:10:34.92 bitrate=N/A speed=18.6x    frame=15463 fps=447 q=-0.0 size=N/A time=00:10:44.93 bitrate=N/A speed=18.7x    frame=15665 fps=446 q=-0.0 size=N/A time=00:10:53.36 bitrate=N/A speed=18.6x    frame=15910 fps=447 q=-0.0 size=N/A time=00:11:03.57 bitrate=N/A speed=18.6x    frame=16162 fps=447 q=-0.0 size=N/A time=00:11:14.09 bitrate=N/A speed=18.7x    frame=16396 fps=448 q=-0.0 size=N/A time=00:11:23.84 bitrate=N/A speed=18.7x    frame=16644 fps=448 q=-0.0 size=N/A time=00:11:34.19 bitrate=N/A speed=18.7x    frame=16897 fps=449 q=-0.0 size=N/A time=00:11:44.74 bitrate=N/A speed=18.7x    frame=17113 fps=448 q=-0.0 size=N/A time=00:11:53.75 bitrate=N/A speed=18.7x    frame=17310 fps=447 q=-0.0 size=N/A time=00:12:01.97 bitrate=N/A speed=18.7x    frame=17498 fps=446 q=-0.0 size=N/A time=00:12:09.81 bitrate=N/A speed=18.6x    frame=17731 fps=446 q=-0.0 size=N/A time=00:12:19.53 bitrate=N/A speed=18.6x    frame=17992 fps=447 q=-0.0 size=N/A time=00:12:30.41 bitrate=N/A speed=18.6x    frame=18219 fps=447 q=-0.0 size=N/A time=00:12:39.88 bitrate=N/A speed=18.6x    frame=18471 fps=447 q=-0.0 size=N/A time=00:12:50.39 bitrate=N/A speed=18.7x    frame=18742 fps=448 q=-0.0 size=N/A time=00:13:01.69 bitrate=N/A speed=18.7x    frame=19000 fps=449 q=-0.0 size=N/A time=00:13:12.45 bitrate=N/A speed=18.7x    frame=19251 fps=450 q=-0.0 size=N/A time=00:13:22.92 bitrate=N/A speed=18.8x    frame=19497 fps=450 q=-0.0 size=N/A time=00:13:33.18 bitrate=N/A speed=18.8x    frame=19728 fps=450 q=-0.0 size=N/A time=00:13:42.82 bitrate=N/A speed=18.8x    frame=19976 fps=450 q=-0.0 size=N/A time=00:13:53.16 bitrate=N/A speed=18.8x    frame=20234 fps=451 q=-0.0 size=N/A time=00:14:03.92 bitrate=N/A speed=18.8x    frame=20499 fps=451 q=-0.0 size=N/A time=00:14:14.97 bitrate=N/A speed=18.8x    frame=20723 fps=451 q=-0.0 size=N/A time=00:14:24.32 bitrate=N/A speed=18.8x    frame=20987 fps=452 q=-0.0 size=N/A time=00:14:35.33 bitrate=N/A speed=18.9x    frame=21233 fps=452 q=-0.0 size=N/A time=00:14:45.59 bitrate=N/A speed=18.9x    frame=21429 fps=452 q=-0.0 size=N/A time=00:14:53.76 bitrate=N/A speed=18.8x    frame=21641 fps=451 q=-0.0 size=N/A time=00:15:02.61 bitrate=N/A speed=18.8x    frame=21796 fps=449 q=-0.0 size=N/A time=00:15:09.07 bitrate=N/A speed=18.7x    frame=22019 fps=449 q=-0.0 size=N/A time=00:15:18.37 bitrate=N/A speed=18.7x    frame=22210 fps=448 q=-0.0 size=N/A time=00:15:26.34 bitrate=N/A speed=18.7x    frame=22462 fps=449 q=-0.0 size=N/A time=00:15:36.85 bitrate=N/A speed=18.7x    frame=22713 fps=449 q=-0.0 size=N/A time=00:15:47.32 bitrate=N/A speed=18.7x    frame=22955 fps=449 q=-0.0 size=N/A time=00:15:57.41 bitrate=N/A speed=18.7x    frame=23116 fps=448 q=-0.0 size=N/A time=00:16:04.12 bitrate=N/A speed=18.7x    frame=23350 fps=448 q=-0.0 size=N/A time=00:16:13.88 bitrate=N/A speed=18.7x    frame=23576 fps=448 q=-0.0 size=N/A time=00:16:23.31 bitrate=N/A speed=18.7x    frame=23789 fps=448 q=-0.0 size=N/A time=00:16:32.19 bitrate=N/A speed=18.7x    frame=24051 fps=448 q=-0.0 size=N/A time=00:16:43.12 bitrate=N/A speed=18.7x    frame=24238 fps=447 q=-0.0 size=N/A time=00:16:50.92 bitrate=N/A speed=18.7x    frame=24478 fps=448 q=-0.0 size=N/A time=00:17:00.93 bitrate=N/A speed=18.7x    frame=24665 fps=447 q=-0.0 size=N/A time=00:17:08.73 bitrate=N/A speed=18.6x    frame=24867 fps=446 q=-0.0 size=N/A time=00:17:17.16 bitrate=N/A speed=18.6x    frame=25096 fps=446 q=-0.0 size=N/A time=00:17:26.71 bitrate=N/A speed=18.6x    frame=25370 fps=447 q=-0.0 size=N/A time=00:17:38.14 bitrate=N/A speed=18.6x    frame=25618 fps=447 q=-0.0 size=N/A time=00:17:48.48 bitrate=N/A speed=18.7x    frame=25848 fps=447 q=-0.0 size=N/A time=00:17:58.07 bitrate=N/A speed=18.7x    frame=26037 fps=447 q=-0.0 size=N/A time=00:18:05.95 bitrate=N/A speed=18.6x    frame=26212 fps=446 q=-0.0 size=N/A time=00:18:13.25 bitrate=N/A speed=18.6x    frame=26412 fps=445 q=-0.0 size=N/A time=00:18:21.60 bitrate=N/A speed=18.6x    frame=26660 fps=445 q=-0.0 size=N/A time=00:18:31.94 bitrate=N/A speed=18.6x    frame=26877 fps=445 q=-0.0 size=N/A time=00:18:40.99 bitrate=N/A speed=18.6x    frame=27054 fps=444 q=-0.0 size=N/A time=00:18:48.37 bitrate=N/A speed=18.5x    frame=27316 fps=445 q=-0.0 size=N/A time=00:18:59.30 bitrate=N/A speed=18.6x    frame=27515 fps=444 q=-0.0 size=N/A time=00:19:07.60 bitrate=N/A speed=18.5x    frame=27744 fps=444 q=-0.0 size=N/A time=00:19:17.15 bitrate=N/A speed=18.5x    frame=27890 fps=443 q=-0.0 size=N/A time=00:19:23.24 bitrate=N/A speed=18.5x    frame=28080 fps=442 q=-0.0 size=N/A time=00:19:31.17 bitrate=N/A speed=18.5x    frame=28270 fps=442 q=-0.0 size=N/A time=00:19:39.09 bitrate=N/A speed=18.4x    frame=28464 fps=441 q=-0.0 size=N/A time=00:19:47.18 bitrate=N/A speed=18.4x    frame=28653 fps=441 q=-0.0 size=N/A time=00:19:55.06 bitrate=N/A speed=18.4x    frame=28836 fps=440 q=-0.0 size=N/A time=00:20:02.70 bitrate=N/A speed=18.4x    frame=29111 fps=441 q=-0.0 size=N/A time=00:20:14.17 bitrate=N/A speed=18.4x    frame=29365 fps=441 q=-0.0 size=N/A time=00:20:24.76 bitrate=N/A speed=18.4x    frame=29615 fps=442 q=-0.0 size=N/A time=00:20:35.19 bitrate=N/A speed=18.4x    frame=29820 fps=441 q=-0.0 size=N/A time=00:20:43.74 bitrate=N/A speed=18.4x    frame=30026 fps=441 q=-0.0 size=N/A time=00:20:52.33 bitrate=N/A speed=18.4x    frame=30281 fps=441 q=-0.0 size=N/A time=00:21:02.97 bitrate=N/A speed=18.4x    frame=30487 fps=441 q=-0.0 size=N/A time=00:21:11.56 bitrate=N/A speed=18.4x    frame=30733 fps=441 q=-0.0 size=N/A time=00:21:21.82 bitrate=N/A speed=18.4x    frame=30945 fps=441 q=-0.0 size=N/A time=00:21:30.66 bitrate=N/A speed=18.4x    frame=31178 fps=441 q=-0.0 size=N/A time=00:21:40.38 bitrate=N/A speed=18.4x    frame=31415 fps=441 q=-0.0 size=N/A time=00:21:50.26 bitrate=N/A speed=18.4x    frame=31605 fps=441 q=-0.0 size=N/A time=00:21:58.19 bitrate=N/A speed=18.4x    frame=31836 fps=441 q=-0.0 size=N/A time=00:22:07.82 bitrate=N/A speed=18.4x    frame=32076 fps=441 q=-0.0 size=N/A time=00:22:17.83 bitrate=N/A speed=18.4x    frame=32261 fps=440 q=-0.0 size=N/A time=00:22:25.55 bitrate=N/A speed=18.4x    frame=32483 fps=440 q=-0.0 size=N/A time=00:22:34.81 bitrate=N/A speed=18.4x    frame=32702 fps=440 q=-0.0 size=N/A time=00:22:43.94 bitrate=N/A speed=18.4x    frame=32901 fps=440 q=-0.0 size=N/A time=00:22:52.24 bitrate=N/A speed=18.3x    frame=33073 fps=439 q=-0.0 size=N/A time=00:22:59.41 bitrate=N/A speed=18.3x    frame=33317 fps=439 q=-0.0 size=N/A time=00:23:09.59 bitrate=N/A speed=18.3x    frame=33533 fps=439 q=-0.0 size=N/A time=00:23:18.60 bitrate=N/A speed=18.3x    frame=33753 fps=439 q=-0.0 size=N/A time=00:23:27.78 bitrate=N/A speed=18.3x    frame=33969 fps=439 q=-0.0 size=N/A time=00:23:36.79 bitrate=N/A speed=18.3x    frame=34204 fps=439 q=-0.0 size=N/A time=00:23:46.59 bitrate=N/A speed=18.3x    frame=34396 fps=439 q=-0.0 size=N/A time=00:23:54.59 bitrate=N/A speed=18.3x    [Parsed_psnr_10 @ 00000180635ea980] PSNR y:47.424171 u:50.148668 v:50.123570 average:48.154647 min:37.687346 max:inf
[out#0/null @ 00000180630c4080] video:14857KiB audio:270424KiB subtitle:0KiB other streams:0KiB global headers:0KiB muxing overhead: unknown
frame=34577 fps=438 q=-0.0 Lsize=N/A time=00:24:02.14 bitrate=N/A speed=18.3x    
